<?xml version="1.0" encoding="utf-8"?>
<!-- Svg Vector Icons : http://www.onlinewebfonts.com/icon -->
<!DOCTYPE svg PUBLIC "-//W3C//DTD SVG 1.1//EN" "http://www.w3.org/Graphics/SVG/1.1/DTD/svg11.dtd">
<svg style="display: none; fill: #0469DD;" version="1.1" xmlns="http://www.w3.org/2000/svg" xmlns:xlink="http://www.w3.org/1999/xlink" x="0px" y="0px" viewBox="0 0 1000 1000" enable-background="new 0 0 1000 1000" xml:space="preserve">
<metadata> Svg Vector Icons : http://www.onlinewebfonts.com/icon </metadata>
<g>
  <path d="M453,429.9H547v93.3H453V429.9L453,429.9z"/><path d="M593.9,429.9h93.9v93.3h-93.9V429.9z"/><path d="M734.8,429.9h93.9v93.3h-93.9V429.9z"/><path d="M734.8,570h93.9v93.3h-93.9V570z"/><path d="M593.9,570h93.9v93.3h-93.9V570z"/><path d="M453,570H547v93.3H453V570L453,570z"/><path d="M312.2,570h93.9v93.3h-93.9V570z"/><path d="M171.3,570h93.9v93.3h-93.9V570z"/><path d="M171.3,710h93.9v93.3h-93.9V710z"/><path d="M312.2,710h93.9v93.3h-93.9V710z"/><path d="M453,710H547v93.3H453V710L453,710z"/><path d="M290,196.6c25.9,0,47-20.8,47-46.6V56.7c0-25.9-21.1-46.7-47-46.7c-25.9,0-47,20.8-47,46.7V150C243,175.7,264,196.6,290,196.6z"/><path d="M828.7,103.2H780v46.7c0,38.7-31.4,70-70,70c-38.7,0-70-31.3-70-70v-46.7H360v46.7c0,38.7-31.3,70-70,70c-38.7,0-70-31.3-70-70v-46.7h-48.8c-77.8,0-140.9,62.7-140.9,140.1v606.6c0,77.4,63.1,140.1,140.9,140.1h657.5c77.8,0,140.9-62.7,140.9-140.1V243.3C969.6,165.9,906.5,103.2,828.7,103.2z M875.7,849.9c0,25.9-21.1,46.7-47,46.7H171.3c-25.9,0-47-20.8-47-46.7V383.3c0-25.9,21.1-46.7,47-46.7h657.5c25.9,0,47,20.8,47,46.7V849.9z"/><path d="M710,196.6c25.9,0,47-20.8,47-46.6V56.7c0-25.9-21.1-46.7-47-46.7s-47,20.8-47,46.7V150C663,175.7,684.1,196.6,710,196.6z"/>
</g>
</svg>